<svg width="83" height="83" viewBox="0 0 83 83" fill="none" xmlns="http://www.w3.org/2000/svg">
<path opacity="0.5" d="M35.7756 19.9922H12.7773V38.3658H35.7756V19.9922Z" fill="#F46760"/>
<path opacity="0.2" d="M59.0256 19.9922H36.0273V38.3658H59.0256V19.9922Z" fill="#F46760"/>
<path d="M41.5 83C64.4198 83 83 64.4198 83 41.5C83 18.5802 64.4198 0 41.5 0C18.5802 0 0 18.5802 0 41.5C0 64.4198 18.5802 83 41.5 83Z" fill="url(#paint0_linear)"/>
<path d="M40 82C62.0914 82 80 64.0914 80 42C80 19.9086 62.0914 2 40 2C17.9086 2 0 19.9086 0 42C0 64.0914 17.9086 82 40 82Z" fill="#F46760"/>
<path d="M39.8829 76.0178C58.6067 76.0178 73.7854 60.8391 73.7854 42.1153C73.7854 23.3915 58.6067 8.21289 39.8829 8.21289C21.1591 8.21289 5.98047 23.3915 5.98047 42.1153C5.98047 60.8391 21.1591 76.0178 39.8829 76.0178Z" fill="white"/>
<path d="M39.8828 44.1426C41.0025 44.1426 41.9102 43.2349 41.9102 42.1152C41.9102 40.9956 41.0025 40.0879 39.8828 40.0879C38.7631 40.0879 37.8555 40.9956 37.8555 42.1152C37.8555 43.2349 38.7631 44.1426 39.8828 44.1426Z" fill="url(#paint1_linear)"/>
<path d="M40.6483 42.3661L39.3984 41.9462L50.6476 15.6182L51.8975 16.2056L40.6483 42.3661Z" fill="url(#paint2_linear)"/>
<path d="M50.7842 15.8598L39.7734 41.9385L40.5749 42.2768L51.5856 16.1981L50.7842 15.8598Z" fill="#EF635B"/>
<path d="M46.8979 56.1151L39.6484 42.6162L40.6484 42.1162L48.1478 55.3652L46.8979 56.1151Z" fill="url(#paint3_linear)"/>
<path d="M40.5534 42.2057L39.7891 42.6211L47.0329 55.9514L47.7972 55.536L40.5534 42.2057Z" fill="#EF635B"/>
<path d="M71.4676 43.8561C71.948 43.8561 72.3375 43.4666 72.3375 42.9861C72.3375 42.5057 71.948 42.1162 71.4676 42.1162C70.9871 42.1162 70.5977 42.5057 70.5977 42.9861C70.5977 43.4666 70.9871 43.8561 71.4676 43.8561Z" fill="#F46760"/>
<path d="M13.6549 27.0615C13.9669 26.5211 13.7817 25.8301 13.2413 25.5181C12.7008 25.2061 12.0098 25.3912 11.6978 25.9316C11.3858 26.4721 11.5709 27.1631 12.1114 27.4751C12.6518 27.7871 13.3428 27.602 13.6549 27.0615Z" fill="url(#paint4_linear)"/>
<path d="M13.5303 59.6372C14.0708 59.3252 14.2559 58.6342 13.9439 58.0937C13.6319 57.5533 12.9408 57.3681 12.4004 57.6802C11.86 57.9922 11.6748 58.6832 11.9868 59.2236C12.2988 59.7641 12.9899 59.9492 13.5303 59.6372Z" fill="url(#paint5_linear)"/>
<path d="M8.30179 44.1153C8.92583 44.1153 9.43171 43.6094 9.43171 42.9854C9.43171 42.3614 8.92583 41.8555 8.30179 41.8555C7.67776 41.8555 7.17188 42.3614 7.17188 42.9854C7.17188 43.6094 7.67776 44.1153 8.30179 44.1153Z" fill="url(#paint6_linear)"/>
<path d="M24.7725 15.8843C25.3129 15.5723 25.4981 14.8812 25.1861 14.3408C24.8741 13.8004 24.183 13.6152 23.6426 13.9272C23.1022 14.2392 22.917 14.9303 23.229 15.4707C23.541 16.0112 24.2321 16.1963 24.7725 15.8843Z" fill="url(#paint7_linear)"/>
<path d="M40.421 11.8296C40.9614 11.5176 41.1465 10.8265 40.8345 10.2861C40.5225 9.74569 39.8315 9.56052 39.291 9.87254C38.7506 10.1846 38.5654 10.8756 38.8775 11.416C39.1895 11.9565 39.8805 12.1416 40.421 11.8296Z" fill="url(#paint8_linear)"/>
<path d="M56.0694 15.8853C56.6098 15.5732 56.795 14.8822 56.483 14.3418C56.171 13.8014 55.4799 13.6162 54.9395 13.9282C54.399 14.2402 54.2139 14.9313 54.5259 15.4717C54.8379 16.0121 55.529 16.1973 56.0694 15.8853Z" fill="url(#paint9_linear)"/>
<path d="M67.6592 27.4771C68.1997 27.1651 68.3848 26.474 68.0728 25.9336C67.7608 25.3932 67.0697 25.208 66.5293 25.52C65.9889 25.832 65.8037 26.5231 66.1157 27.0635C66.4278 27.6039 67.1188 27.7891 67.6592 27.4771Z" fill="url(#paint10_linear)"/>
<path d="M67.3663 59.6401C67.9067 59.3281 68.0919 58.6371 67.7798 58.0967C67.4678 57.5562 66.7768 57.3711 66.2363 57.6831C65.6959 57.9951 65.5107 58.6861 65.8228 59.2266C66.1348 59.767 66.8258 59.9522 67.3663 59.6401Z" fill="url(#paint11_linear)"/>
<path d="M55.4874 70.94C56.0278 70.628 56.213 69.9369 55.9009 69.3965C55.5889 68.8561 54.8979 68.6709 54.3574 68.9829C53.817 69.2949 53.6318 69.986 53.9439 70.5264C54.2559 71.0668 54.9469 71.252 55.4874 70.94Z" fill="url(#paint12_linear)"/>
<path d="M40.4209 74.4185C40.9614 74.1065 41.1465 73.4154 40.8345 72.875C40.5225 72.3346 39.8315 72.1494 39.291 72.4614C38.7506 72.7734 38.5654 73.4645 38.8775 74.0049C39.1895 74.5453 39.8805 74.7305 40.4209 74.4185Z" fill="url(#paint13_linear)"/>
<path d="M25.3545 70.9409C25.895 70.6289 26.0801 69.9379 25.7681 69.3975C25.4561 68.857 24.7651 68.6719 24.2246 68.9839C23.6842 69.2959 23.499 69.9869 23.8111 70.5274C24.1231 71.0678 24.8141 71.253 25.3545 70.9409Z" fill="url(#paint14_linear)"/>
<path d="M39.8856 11.6901C40.366 11.6901 40.7555 11.3006 40.7555 10.8201C40.7555 10.3397 40.366 9.9502 39.8856 9.9502C39.4051 9.9502 39.0156 10.3397 39.0156 10.8201C39.0156 11.3006 39.4051 11.6901 39.8856 11.6901Z" fill="#6C63FF"/>
<path d="M56.2855 15.4476C56.5257 15.0315 56.3831 14.4995 55.9671 14.2592C55.551 14.019 55.0189 14.1616 54.7787 14.5777C54.5385 14.9937 54.6811 15.5258 55.0971 15.766C55.5132 16.0063 56.0453 15.8637 56.2855 15.4476Z" fill="#6C63FF"/>
<path d="M67.4202 27.2222C67.8363 26.982 67.9788 26.4499 67.7386 26.0338C67.4984 25.6178 66.9663 25.4752 66.5503 25.7154C66.1342 25.9556 65.9916 26.4877 66.2318 26.9038C66.4721 27.3199 67.0041 27.4624 67.4202 27.2222Z" fill="#6C63FF"/>
<path d="M67.555 59.0941C67.7953 58.678 67.6527 58.146 67.2366 57.9057C66.8205 57.6655 66.2885 57.8081 66.0482 58.2242C65.808 58.6402 65.9506 59.1723 66.3667 59.4125C66.7827 59.6527 67.3148 59.5102 67.555 59.0941Z" fill="#6C63FF"/>
<path d="M55.3577 70.6548C55.7738 70.4146 55.9163 69.8825 55.6761 69.4665C55.4359 69.0504 54.9038 68.9078 54.4878 69.148C54.0717 69.3883 53.9291 69.9203 54.1693 70.3364C54.4096 70.7525 54.9416 70.895 55.3577 70.6548Z" fill="#6C63FF"/>
<path d="M24.6702 15.7691C25.0863 15.5289 25.2288 14.9968 24.9886 14.5807C24.7484 14.1646 24.2163 14.0221 23.8003 14.2623C23.3842 14.5025 23.2416 15.0346 23.4818 15.4507C23.7221 15.8667 24.2541 16.0093 24.6702 15.7691Z" fill="#6C63FF"/>
<path d="M13.5355 26.9046C13.7757 26.4885 13.6331 25.9565 13.2171 25.7163C12.801 25.4761 12.2689 25.6186 12.0287 26.0347C11.7885 26.4508 11.931 26.9828 12.3471 27.2231C12.7632 27.4633 13.2953 27.3207 13.5355 26.9046Z" fill="#6C63FF"/>
<path d="M72.0069 43.9937C72.5473 43.6817 72.7325 42.9906 72.4205 42.4502C72.1084 41.9098 71.4174 41.7246 70.877 42.0366C70.3365 42.3486 70.1514 43.0397 70.4634 43.5801C70.7754 44.1205 71.4665 44.3057 72.0069 43.9937Z" fill="#6C63FF"/>
<path d="M13.4046 59.4126C13.8207 59.1724 13.9632 58.6404 13.723 58.2243C13.4828 57.8082 12.9507 57.6656 12.5346 57.9058C12.1186 58.1461 11.976 58.6781 12.2162 59.0942C12.4564 59.5103 12.9885 59.6529 13.4046 59.4126Z" fill="#6C63FF"/>
<path d="M25.598 70.3382C25.8382 69.9221 25.6956 69.3901 25.2796 69.1499C24.8635 68.9096 24.3314 69.0522 24.0912 69.4683C23.851 69.8844 23.9935 70.4164 24.4096 70.6566C24.8257 70.8969 25.3578 70.7543 25.598 70.3382Z" fill="#6C63FF"/>
<path d="M8.29962 43.8561C8.78007 43.8561 9.16956 43.4666 9.16956 42.9861C9.16956 42.5057 8.78007 42.1162 8.29962 42.1162C7.81917 42.1162 7.42969 42.5057 7.42969 42.9861C7.42969 43.4666 7.81917 43.8561 8.29962 43.8561Z" fill="#6C63FF"/>
<path d="M39.8856 74.2789C40.366 74.2789 40.7555 73.8894 40.7555 73.409C40.7555 72.9285 40.366 72.5391 39.8856 72.5391C39.4051 72.5391 39.0156 72.9285 39.0156 73.409C39.0156 73.8894 39.4051 74.2789 39.8856 74.2789Z" fill="#6C63FF"/>
<path opacity="0.2" d="M7.72069 45.3033C7.72293 37.8326 10.1923 30.5717 14.7453 24.6487C19.2983 18.7257 25.68 14.4722 32.8988 12.5489C40.1177 10.6256 47.7697 11.1402 54.6661 14.0129C61.5624 16.8855 67.317 21.9552 71.0359 28.4345C69.211 24.1956 66.54 20.3738 63.1865 17.2032C59.8329 14.0326 55.8674 11.5799 51.5328 9.99549C47.1983 8.41105 42.5859 7.72815 37.9781 7.98862C33.3704 8.24908 28.8644 9.44743 24.736 11.5103C20.6076 13.5731 16.9437 16.457 13.9688 19.9853C10.994 23.5137 8.77069 27.6122 7.43516 32.0298C6.09964 36.4474 5.67998 41.0912 6.2019 45.6766C6.72383 50.2621 8.17634 54.6928 10.4705 58.6973C8.65062 54.4667 7.71487 49.9087 7.72069 45.3033V45.3033Z" fill="#F46760"/>
<path d="M39.8835 43.5658C40.6842 43.5658 41.3334 42.9167 41.3334 42.1159C41.3334 41.3152 40.6842 40.666 39.8835 40.666C39.0827 40.666 38.4336 41.3152 38.4336 42.1159C38.4336 42.9167 39.0827 43.5658 39.8835 43.5658Z" fill="#6C63FF"/>
<defs>
<linearGradient id="paint0_linear" x1="14238.6" y1="54784.2" x2="14238.6" y2="26306.9" gradientUnits="userSpaceOnUse">
<stop stop-color="#808080" stop-opacity="0.25"/>
<stop offset="0.54" stop-color="#808080" stop-opacity="0.12"/>
<stop offset="1" stop-color="#808080" stop-opacity="0.1"/>
</linearGradient>
<linearGradient id="paint1_linear" x1="733.438" y1="2053.68" x2="733.438" y2="1987.87" gradientUnits="userSpaceOnUse">
<stop stop-color="#808080" stop-opacity="0.25"/>
<stop offset="0.54" stop-color="#808080" stop-opacity="0.12"/>
<stop offset="1" stop-color="#808080" stop-opacity="0.1"/>
</linearGradient>
<linearGradient id="paint2_linear" x1="2471.84" y1="13108.7" x2="2471.84" y2="10246.7" gradientUnits="userSpaceOnUse">
<stop stop-color="#808080" stop-opacity="0.25"/>
<stop offset="0.54" stop-color="#808080" stop-opacity="0.12"/>
<stop offset="1" stop-color="#808080" stop-opacity="0.1"/>
</linearGradient>
<linearGradient id="paint3_linear" x1="1634.21" y1="7664.53" x2="1634.21" y2="6880.59" gradientUnits="userSpaceOnUse">
<stop stop-color="#808080" stop-opacity="0.25"/>
<stop offset="0.54" stop-color="#808080" stop-opacity="0.12"/>
<stop offset="1" stop-color="#808080" stop-opacity="0.1"/>
</linearGradient>
<linearGradient id="paint4_linear" x1="-919.13" y1="1816.37" x2="-901.458" y2="1806.16" gradientUnits="userSpaceOnUse">
<stop stop-color="#808080" stop-opacity="0.25"/>
<stop offset="0.54" stop-color="#808080" stop-opacity="0.12"/>
<stop offset="1" stop-color="#808080" stop-opacity="0.1"/>
</linearGradient>
<linearGradient id="paint5_linear" x1="567.91" y1="1592.33" x2="567.91" y2="1571.92" gradientUnits="userSpaceOnUse">
<stop stop-color="#808080" stop-opacity="0.25"/>
<stop offset="0.54" stop-color="#808080" stop-opacity="0.12"/>
<stop offset="1" stop-color="#808080" stop-opacity="0.1"/>
</linearGradient>
<linearGradient id="paint6_linear" x1="-179.85" y1="1854.18" x2="-169.636" y2="1836.49" gradientUnits="userSpaceOnUse">
<stop stop-color="#808080" stop-opacity="0.25"/>
<stop offset="0.54" stop-color="#808080" stop-opacity="0.12"/>
<stop offset="1" stop-color="#808080" stop-opacity="0.1"/>
</linearGradient>
<linearGradient id="paint7_linear" x1="-1546.74" y1="1380.13" x2="-1526.31" y2="1380.13" gradientUnits="userSpaceOnUse">
<stop stop-color="#808080" stop-opacity="0.25"/>
<stop offset="0.54" stop-color="#808080" stop-opacity="0.12"/>
<stop offset="1" stop-color="#808080" stop-opacity="0.1"/>
</linearGradient>
<linearGradient id="paint8_linear" x1="-1401.24" y1="1359.12" x2="-1380.81" y2="1359.12" gradientUnits="userSpaceOnUse">
<stop stop-color="#808080" stop-opacity="0.25"/>
<stop offset="0.54" stop-color="#808080" stop-opacity="0.12"/>
<stop offset="1" stop-color="#808080" stop-opacity="0.1"/>
</linearGradient>
<linearGradient id="paint9_linear" x1="-1263.83" y1="1411.42" x2="-1243.42" y2="1411.42" gradientUnits="userSpaceOnUse">
<stop stop-color="#808080" stop-opacity="0.25"/>
<stop offset="0.54" stop-color="#808080" stop-opacity="0.12"/>
<stop offset="1" stop-color="#808080" stop-opacity="0.1"/>
</linearGradient>
<linearGradient id="paint10_linear" x1="-1170.64" y1="1527.8" x2="-1150.22" y2="1527.8" gradientUnits="userSpaceOnUse">
<stop stop-color="#808080" stop-opacity="0.25"/>
<stop offset="0.54" stop-color="#808080" stop-opacity="0.12"/>
<stop offset="1" stop-color="#808080" stop-opacity="0.1"/>
</linearGradient>
<linearGradient id="paint11_linear" x1="-1205.45" y1="1818.24" x2="-1185.02" y2="1818.24" gradientUnits="userSpaceOnUse">
<stop stop-color="#808080" stop-opacity="0.25"/>
<stop offset="0.54" stop-color="#808080" stop-opacity="0.12"/>
<stop offset="1" stop-color="#808080" stop-opacity="0.1"/>
</linearGradient>
<linearGradient id="paint12_linear" x1="-1324.12" y1="1908.54" x2="-1303.72" y2="1908.54" gradientUnits="userSpaceOnUse">
<stop stop-color="#808080" stop-opacity="0.25"/>
<stop offset="0.54" stop-color="#808080" stop-opacity="0.12"/>
<stop offset="1" stop-color="#808080" stop-opacity="0.1"/>
</linearGradient>
<linearGradient id="paint13_linear" x1="-1463.83" y1="1924.91" x2="-1443.4" y2="1924.91" gradientUnits="userSpaceOnUse">
<stop stop-color="#808080" stop-opacity="0.25"/>
<stop offset="0.54" stop-color="#808080" stop-opacity="0.12"/>
<stop offset="1" stop-color="#808080" stop-opacity="0.1"/>
</linearGradient>
<linearGradient id="paint14_linear" x1="-1596.54" y1="1878.41" x2="-1576.14" y2="1878.41" gradientUnits="userSpaceOnUse">
<stop stop-color="#808080" stop-opacity="0.25"/>
<stop offset="0.54" stop-color="#808080" stop-opacity="0.12"/>
<stop offset="1" stop-color="#808080" stop-opacity="0.1"/>
</linearGradient>
</defs>
</svg>
