<svg width="64" height="64" viewBox="0 0 64 64" fill="none" xmlns="http://www.w3.org/2000/svg">
<path d="M55.7397 32.4343C55.7397 17.8629 44.433 7.96289 31.8522 7.96289C19.4042 7.96289 7.96471 17.6506 7.96471 32.5936C6.37221 33.496 5.31055 35.1946 5.31055 37.1587V42.4671C5.31055 45.3866 7.6993 47.7754 10.6189 47.7754H11.4481V31.585C11.4481 21.3133 21.5806 11.4465 31.8522 11.4465C42.1238 11.4465 52.3804 21.3133 52.3804 31.585V52.2543H29.198V55.7379H50.4314C53.351 55.7379 55.7397 53.3491 55.7397 50.4296V47.1915C57.3057 46.3687 58.3939 44.7496 58.3939 42.8386V36.7341C58.3939 34.8761 57.3057 33.2571 55.7397 32.4343Z" fill="#4A4A4A"/>
<path d="M22.6422 38.0703C24.2913 38.0703 25.6281 36.6778 25.6281 34.96C25.6281 33.2422 24.2913 31.8496 22.6422 31.8496C20.9931 31.8496 19.6562 33.2422 19.6562 34.96C19.6562 36.6778 20.9931 38.0703 22.6422 38.0703Z" fill="#4A4A4A"/>
<path d="M41.3043 38.0703C42.9534 38.0703 44.2902 36.6778 44.2902 34.96C44.2902 33.2422 42.9534 31.8496 41.3043 31.8496C39.6552 31.8496 38.3184 33.2422 38.3184 34.96C38.3184 36.6778 39.6552 38.0703 41.3043 38.0703Z" fill="#4A4A4A"/>
<path d="M50.5109 28.9053C49.0273 19.9996 41.3616 13.1875 32.1194 13.1875C22.7537 13.1875 12.677 21.0308 13.4807 33.3426C21.1155 30.1865 26.8647 23.3119 28.503 14.9374C32.5522 23.1557 40.867 28.8116 50.5109 28.9053Z" fill="#4A4A4A"/>
</svg>
