<svg width="31" height="38" viewBox="0 0 31 38" fill="none" xmlns="http://www.w3.org/2000/svg">
<path d="M25.8281 13.9531H10.091V7.85012C10.091 5.1585 12.355 2.96875 15.1379 2.96875C17.9207 2.96875 20.1848 5.1585 20.1848 7.85012V10.6875H23.1535V7.85012C23.1535 3.52153 19.5577 0 15.1379 0C10.7181 0 7.12225 3.52153 7.12225 7.85012V13.9531H4.45312C1.99767 13.9531 0 15.9508 0 18.4062V33.5469C0 36.0023 1.99767 38 4.45312 38H25.8281C28.2836 38 30.2812 36.0023 30.2812 33.5469V18.4062C30.2812 15.9508 28.2836 13.9531 25.8281 13.9531ZM27.3125 33.5469C27.3125 34.3654 26.6466 35.0312 25.8281 35.0312H4.45312C3.63464 35.0312 2.96875 34.3654 2.96875 33.5469V18.4062C2.96875 17.5878 3.63464 16.9219 4.45312 16.9219H25.8281C26.6466 16.9219 27.3125 17.5878 27.3125 18.4062V33.5469Z" fill="#4A4A4A"/>
<path d="M15.1406 21.2266C13.624 21.2266 12.3945 22.456 12.3945 23.9727C12.3945 24.9411 12.8962 25.7918 13.6535 26.2807V29.5391C13.6535 30.3588 14.3181 31.0234 15.1379 31.0234C15.9576 31.0234 16.6223 30.3588 16.6223 29.5391V26.2842C17.3826 25.7958 17.8867 24.9434 17.8867 23.9727C17.8867 22.456 16.6573 21.2266 15.1406 21.2266Z" fill="#4A4A4A"/>
</svg>
