<svg width="23" height="24" viewBox="0 0 23 24" fill="none" xmlns="http://www.w3.org/2000/svg">
<circle r="11.5" transform="matrix(1 0 0 -1 11.5 12.1599)" fill="#FAFAFA"/>
<path d="M15.3333 19.5638H6.57143C5.76096 19.5638 5.11111 18.9066 5.11111 18.1035V7.88124C5.11111 7.07807 5.76096 6.42092 6.57143 6.42092H16.7937C17.5968 6.42092 18.254 7.07807 18.254 7.88124V16.6431L15.3333 19.5638ZM11.6825 7.88124C10.4705 7.88124 9.49207 8.85965 9.49207 10.0717C9.49207 11.2838 10.4705 12.2622 11.6825 12.2622C12.8946 12.2622 13.873 11.2838 13.873 10.0717C13.873 8.85965 12.8946 7.88124 11.6825 7.88124ZM13.873 16.6431H6.57143V17.5H13.873V16.6431Z" fill="#F55347"/>
</svg>
