<svg width="922" height="520" viewBox="0 0 922 520" fill="none" xmlns="http://www.w3.org/2000/svg">
<path d="M852.619 1.59026e-10H69.381C60.2697 -1.949e-05 51.2478 1.79327 42.83 5.2775C34.4123 8.76173 26.7637 13.8686 20.3211 20.3066C13.8785 26.7446 8.76798 34.3877 5.28126 42.7994C1.79455 51.2111 -1.95039e-05 60.2267 1.5914e-10 69.3315V450.669C1.59351e-10 469.056 7.30975 486.691 20.3212 499.693C33.3327 512.695 50.98 520 69.381 520H852.619C871.02 520 888.667 512.695 901.679 499.693C914.69 486.691 922 469.056 922 450.669V69.3315C922 60.2267 920.205 51.2111 916.719 42.7994C913.232 34.3877 908.121 26.7446 901.679 20.3066C895.236 13.8686 887.588 8.76173 879.17 5.2775C870.752 1.79327 861.73 -1.949e-05 852.619 1.59026e-10ZM50.0023 47.2947C51.549 47.0152 88.2246 40.7784 118.594 59.0392C148.962 77.2965 160.629 112.601 161.11 114.094L162.338 117.901L158.397 118.6C152.775 119.477 147.091 119.894 141.401 119.847C123.349 120.192 105.535 115.705 89.8037 106.852C59.436 88.5979 47.7701 53.2929 47.2892 51.8002L46.0614 47.9933L50.0023 47.2947ZM220.023 401.342H80.3257C70.137 401.342 60.3656 397.298 53.1611 390.098C45.9566 382.899 41.909 373.134 41.909 362.953C41.909 352.771 45.9566 343.007 53.1611 335.808C60.3656 328.608 70.137 324.564 80.3257 324.564H220.023C230.211 324.564 239.983 328.608 247.187 335.808C254.392 343.007 258.439 352.771 258.439 362.953C258.439 373.134 254.392 382.899 247.187 390.098C239.983 397.298 230.211 401.342 220.023 401.342ZM855.644 394.362C855.611 405.459 851.186 416.093 843.333 423.94C835.481 431.786 824.84 436.209 813.735 436.242H708.962C697.857 436.209 687.216 431.786 679.364 423.94C671.511 416.093 667.086 405.459 667.053 394.362V331.544C667.085 320.447 671.511 309.813 679.364 301.966C687.216 294.12 697.857 289.697 708.962 289.664H813.735C824.84 289.697 835.481 294.12 843.333 301.966C851.186 309.813 855.611 320.447 855.644 331.544V394.362Z" fill="#3F3D56"/>
</svg>
