<?xml version="1.0" encoding="UTF-8" standalone="no"?>
<svg
   xmlns:dc="http://purl.org/dc/elements/1.1/"
   xmlns:cc="http://creativecommons.org/ns#"
   xmlns:rdf="http://www.w3.org/1999/02/22-rdf-syntax-ns#"
   xmlns:svg="http://www.w3.org/2000/svg"
   xmlns="http://www.w3.org/2000/svg"
   xmlns:sodipodi="http://sodipodi.sourceforge.net/DTD/sodipodi-0.dtd"
   xmlns:inkscape="http://www.inkscape.org/namespaces/inkscape"
   version="1.1"
   id="svg2"
   xml:space="preserve"
   width="340.45334"
   height="294.50668"
   viewBox="0 0 340.45334 294.50668"
   sodipodi:docname="UCR_Icon_BluBG.eps"><metadata
     id="metadata8"><rdf:RDF><cc:Work
         rdf:about=""><dc:format>image/svg+xml</dc:format><dc:type
           rdf:resource="http://purl.org/dc/dcmitype/StillImage" /></cc:Work></rdf:RDF></metadata><defs
     id="defs6" /><sodipodi:namedview
     pagecolor="#ffffff"
     bordercolor="#666666"
     borderopacity="1"
     objecttolerance="10"
     gridtolerance="10"
     guidetolerance="10"
     inkscape:pageopacity="0"
     inkscape:pageshadow="2"
     inkscape:window-width="640"
     inkscape:window-height="480"
     id="namedview4" /><g
     id="g10"
     inkscape:groupmode="layer"
     inkscape:label="ink_ext_XXXXXX"
     transform="matrix(1.3333333,0,0,-1.3333333,0,294.50667)"><g
       id="g12"
       transform="scale(0.1)"><path
         d="M 2553.44,0 H 0 V 2208.79 H 2553.44 V 0"
         style="fill:#244995;fill-opacity:1;fill-rule:nonzero;stroke:none"
         id="path14" /><path
         d="M 772.793,244.84 2075.82,800.512 v 39.957 L 772.793,544.691 V 244.84"
         style="fill:#f9ad16;fill-opacity:1;fill-rule:nonzero;stroke:none"
         id="path16" /><path
         d="M 477.617,477.691 2075.82,840.469 V 1963.95 L 477.617,1729.35 V 477.691"
         style="fill:#ffffff;fill-opacity:1;fill-rule:nonzero;stroke:none"
         id="path18" /><path
         d="m 1437.28,1076.95 c 0,-102.47 -66.41,-140.419 -166.96,-140.419 h -1.89 c -100.58,0 -166.97,37.008 -166.97,140.419 v 398.43 c 0,98.66 66.39,140.4 166.97,140.4 h 1.89 c 100.55,0 166.96,-41.74 166.96,-140.4 v -121.43 h -110.03 v 104.36 c 0,46.49 -22.79,60.71 -57.88,60.71 -35.11,0 -57.87,-14.22 -57.87,-60.71 v -364.29 c 0,-46.49 22.76,-60.72 57.87,-60.72 35.09,0 57.88,14.23 57.88,60.72 v 120.48 h 110.03 v -137.55"
         style="fill:#244995;fill-opacity:1;fill-rule:nonzero;stroke:none"
         id="path20" /><path
         d="m 886.652,1608.21 v -514.19 c 0,-47.43 -20.879,-60.72 -56.933,-60.72 -36.051,0 -56.926,13.29 -56.926,60.72 v 514.19 H 662.758 v -531.26 c 0,-103.411 64.496,-140.419 165.074,-140.419 h 3.781 c 100.578,0 165.075,37.949 165.075,140.419 v 531.26 H 886.652"
         style="fill:#244995;fill-opacity:1;fill-rule:nonzero;stroke:none"
         id="path22" /><path
         d="m 1773.98,1364.38 c 0,-47.43 -24.66,-60.72 -60.71,-60.72 h -57.86 v 207.78 h 57.86 c 36.05,0 60.71,-13.29 60.71,-60.72 z m 37.95,-138.5 c 45.54,19.92 72.11,59.76 72.11,123.32 v 118.59 c 0,100.55 -66.41,140.42 -166.97,140.42 H 1545.36 V 944.121 h 110.05 V 1208.8 h 55.02 l 84.43,-264.679 h 112.15 l -95.08,281.759"
         style="fill:#244995;fill-opacity:1;fill-rule:nonzero;stroke:none"
         id="path24" /></g></g></svg>
