<svg xmlns="http://www.w3.org/2000/svg" xmlns:xlink="http://www.w3.org/1999/xlink" viewBox="0 0 796 708.75"><defs><style>.cls-1{fill:none;}.cls-2{fill:#e6e6e6;}.cls-3{clip-path:url(#clip-path);}.cls-4{fill:#3f3d56;}.cls-5{fill:#fff;}.cls-6{fill:#6c63ff;}.cls-7{fill:#ffb8b8;}.cls-8{fill:#2f2e41;}.cls-9{fill:#575a89;}.cls-10{fill:#d0cde1;}</style><clipPath id="clip-path"><rect class="cls-1" x="142" y="53" width="414" height="602.5"/></clipPath></defs><title>acct settings</title><g id="Layer_2" data-name="Layer 2"><g id="Layer_1-2" data-name="Layer 1"><path class="cls-2" d="M181.63,462.37l10.51-34.61a455.32,455.32,0,0,0-32.39-39.81l-9.38,13.37,5.38-17.72c-14.42-15.5-25-24.85-25-24.85S110,429.31,115.52,496.15l35,30.51-33.05-14a184.21,184.21,0,0,0,4.9,22.63c21.48,74.86,63.33,128.53,93.49,119.88S253,578.84,231.56,504c-6.66-23.21-18.87-46-32.56-66.36Z"/><path class="cls-2" d="M97.08,500.45l-8.89-35.06a455.33,455.33,0,0,0-48.31-17.33l-1.12,16.3-4.55-18C13.85,440.58,0,438,0,438s18.71,71.14,57.94,125.52l45.72,8L68.15,576.7A184.21,184.21,0,0,0,84,593.53c57.08,53,120.65,77.29,142,54.29s-7.62-84.59-64.7-137.57c-17.7-16.42-39.92-29.61-62.17-40Z"/><g class="cls-3"><path class="cls-4" d="M518.5,48.29V660.46a48.3,48.3,0,0,1-48.29,48.29H232.31A48.31,48.31,0,0,1,184,660.46V48.29A48.31,48.31,0,0,1,232.31,0h28.86a23,23,0,0,0,21.25,31.62H418A23,23,0,0,0,439.29,0h30.91A48.3,48.3,0,0,1,518.5,48.29Z"/></g><path class="cls-2" d="M682.18,603.94l6.62-7.14a122.56,122.56,0,0,0-3.16-13.45l-3.84,2.13,3.39-3.66c-1.67-5.45-3.12-9-3.12-9s-13.32,14.65-19.86,31.47l4.88,11.5-6.36-7.27a49.59,49.59,0,0,0-1.47,6.05c-3.6,20.65.22,38.57,8.54,40s18-14.11,21.59-34.77a65.28,65.28,0,0,0-.08-19.9Z"/><path class="cls-2" d="M780,618.07l9.36-2.7a122.55,122.55,0,0,0,4.24-13.15l-4.39-.16,4.79-1.38c1.39-5.53,2-9.28,2-9.28s-19,5.65-33.27,16.68L761,620.46,759.28,611a49.59,49.59,0,0,0-4.39,4.42c-13.76,15.82-19.74,33.13-13.37,38.67s22.69-2.79,36.45-18.6a65.28,65.28,0,0,0,10.22-17.07Z"/><path class="cls-5" d="M317.73,199.54a23.88,23.88,0,0,1,11.95-20.69,23.89,23.89,0,1,0,0,41.38A23.88,23.88,0,0,1,317.73,199.54Z"/><path class="cls-5" d="M347.76,199.54a23.88,23.88,0,0,1,11.95-20.69,23.89,23.89,0,1,0,0,41.38A23.88,23.88,0,0,1,347.76,199.54Z"/><circle class="cls-6" cx="377.12" cy="199.54" r="23.89"/><rect class="cls-5" x="244.57" y="355.9" width="213.56" height="2"/><circle class="cls-6" cx="251.32" cy="336.67" r="6.74"/><rect class="cls-5" x="244.57" y="423.35" width="213.56" height="2"/><circle class="cls-6" cx="251.32" cy="404.11" r="6.74"/><path class="cls-5" d="M417,274.16H277.8a5,5,0,0,1-5-5V129.92a5,5,0,0,1,5-5H417a5,5,0,0,1,5,5V269.16A5,5,0,0,1,417,274.16ZM277.8,126.92a3,3,0,0,0-3,3V269.16a3,3,0,0,0,3,3H417a3,3,0,0,0,3-3V129.92a3,3,0,0,0-3-3Z"/><rect class="cls-6" x="382.83" y="468.18" width="75.31" height="31.47" rx="4" ry="4"/><rect class="cls-4" x="0.79" y="653.77" width="795.21" height="2"/><path class="cls-7" d="M644.52,271.08s-2.77,17.53,0,20.3S627,317.22,627,317.22l-16.61-23.07s7.38-12,4.61-22.15Z"/><polygon class="cls-8" points="583.62 403.04 571.62 531.31 576.23 630.97 598.38 624.51 599.3 535 625.14 457.49 640.83 541.46 638.98 626.36 666.66 627.28 668.51 533.15 671.76 401.69 583.62 403.04"/><path class="cls-8" d="M639.91,623.59v20.3s-4.61,14.76,10.15,13.84,13.84-7.38,13.84-7.38l-5.54-24.92Z"/><path class="cls-8" d="M597.46,623.59v20.3s4.61,14.76-10.15,13.84-13.84-7.38-13.84-7.38L579,625.43Z"/><circle class="cls-7" cx="628.83" cy="260.01" r="21.22"/><path class="cls-9" d="M627.91,307.07l1.85-9.23h4.61L643.29,285l7.69,7.3,1.85,43.37H603l4.61-46.14,6.72-4.53s-1.18,15.6,11.74,15.6Z"/><path class="cls-10" d="M608.53,296.92s7.64,9.67,19,9S650.06,296,650.06,296l15.69,120s-17.53,1.85-23.07-7.38l-42.45-.92L601.15,296Z"/><path class="cls-8" d="M614.76,283.42l-40.37,20,10.15,57.21s3.69,21.22,0,29.53-7.38,63.67-7.38,63.67,41.53,4.61,36-60.9S614.76,283.42,614.76,283.42Z"/><path class="cls-7" d="M590.08,421.5l5.54,5.54s16.61,28.61,24,18.46-12.92-27.68-12.92-27.68l-9.23-7.38Z"/><path class="cls-8" d="M643.31,283.42l40,20-13.84,68.29s.92,22.15,5.54,34.14,2.77,47.06,2.77,47.06-5.54,21.22-17.53-31.37S643.31,283.42,643.31,283.42Z"/><path class="cls-7" d="M674.05,388.28h-8.31s-27.68-3.69-25.84,7.38S667.59,404,667.59,404l10.15-.92Z"/><path class="cls-8" d="M579.93,300.61l-6.46,2.77s-6.46,13.84-7.38,18.46-12,60-9.23,66.44,30.45,40.6,30.45,40.6L603,412.27l-23.07-31.37,6.46-39.68Z"/><path class="cls-8" d="M669.44,301.53l12.21,1,2.55.82s25.84,70.13,20.3,81.21S675,416,675,416l-6.46-28.61,12-11.07-12-36.91Z"/><path class="cls-8" d="M646.79,243.64s5.55-10.42-6.66-11.37c0,0-11.1-6.63-20,.95,0,0-7.77-1.89-10,3.79,0,0-1.11-2.84,2.22-4.74,0,0-7.77-1.89-7.77,7.58,0,0-3.33,9.47,0,18s4.44,9.47,4.44,9.47-5.47-17.87,7.85-18.82,28.24-9.12,29.35,1.3,3.33,13.26,3.33,13.26S659.56,247.9,646.79,243.64Z"/></g></g></svg>