<svg width="22" height="40" viewBox="0 0 22 40" fill="none" xmlns="http://www.w3.org/2000/svg">
<path d="M17.6284 27.7263C17.6284 26.4351 17.1164 25.3474 16.0924 24.4632C15.0841 23.5789 13.3749 22.7789 10.9646 22.0632C7.60902 21.1509 5.15933 19.9649 3.61547 18.5053C2.08736 17.0316 1.32331 15.1649 1.32331 12.9053C1.32331 10.6035 2.07161 8.71579 3.56821 7.24211C5.08056 5.76842 7.15217 4.89123 9.78303 4.61053V0H13.304V4.63158C15.9506 4.95439 18.0064 5.94386 19.4715 7.6C20.9524 9.25614 21.6928 11.5228 21.6928 14.4H17.3448C17.3448 12.4211 16.817 10.8491 15.7615 9.68421C14.7061 8.5193 13.2803 7.93684 11.4844 7.93684C9.60974 7.93684 8.17615 8.37193 7.18367 9.24211C6.19119 10.0982 5.69495 11.2982 5.69495 12.8421C5.69495 14.2737 6.21482 15.4175 7.25456 16.2737C8.31006 17.1158 10.0351 17.8877 12.4296 18.5895C14.84 19.2772 16.7146 20.0421 18.0537 20.8842C19.4085 21.7123 20.401 22.6807 21.0311 23.7895C21.677 24.8982 22 26.1965 22 27.6842C22 30.0561 21.1966 31.9649 19.5897 33.4105C17.9986 34.8561 15.7615 35.7123 12.8786 35.9789V40H9.38131V35.9789C6.45113 35.7404 4.15109 34.814 2.4812 33.2C0.827068 31.5719 0 29.3684 0 26.5895H4.37164C4.37164 28.5404 4.94665 30.0421 6.09667 31.0947C7.24669 32.1474 8.87719 32.6737 10.9882 32.6737C13.0519 32.6737 14.6745 32.2316 15.8561 31.3474C17.0376 30.4632 17.6284 29.2561 17.6284 27.7263Z" fill="#4A4A4A"/>
</svg>
