<svg width="889" height="535" viewBox="0 0 889 535" fill="none" xmlns="http://www.w3.org/2000/svg">
<path d="M58.2346 391.7L52.9016 370.666C43.4454 366.659 33.7707 363.188 23.9237 360.27L23.2503 370.045L20.5199 359.276C8.30785 355.788 3.05176e-05 354.252 3.05176e-05 354.252C3.05176e-05 354.252 11.222 396.926 34.7592 429.551L62.1852 434.368L40.8787 437.44C43.8407 441.003 47.0239 444.377 50.4094 447.54C84.6494 479.322 122.786 493.904 135.591 480.11C148.395 466.315 131.018 429.368 96.7778 397.586C86.1631 387.733 72.8287 379.826 59.4811 373.603L58.2346 391.7Z" fill="#E6E6E6"/>
<path d="M108.955 368.858L115.263 348.095C109.239 339.776 102.751 331.804 95.8302 324.216L90.2008 332.236L93.4302 321.606C84.7787 312.308 78.4608 306.699 78.4608 306.699C78.4608 306.699 66.0092 349.03 69.2945 389.125L90.2822 407.425L70.455 399.042C71.1488 403.623 72.13 408.156 73.393 412.614C86.2758 457.52 111.385 489.716 129.477 484.525C147.568 479.335 151.791 438.724 138.908 393.819C134.914 379.898 127.586 366.237 119.377 354.01L108.955 368.858Z" fill="#E6E6E6"/>
<path d="M888.08 487.65H0.0797119V489.891H888.08V487.65Z" fill="#3F3D56"/>
<path d="M140.378 255.613C140.378 255.613 133.463 338.761 131.978 356.579C130.96 367.747 128.463 378.732 124.554 389.243C124.554 389.243 121.584 395.183 121.584 401.122V476.845C121.584 476.845 115.645 476.845 117.13 482.784C118.615 488.723 120.1 499.116 120.1 499.116H142.371C142.371 499.116 140.886 494.662 145.341 493.177C149.795 491.693 145.341 479.814 145.341 479.814L169.097 390.728L204.731 316.49C204.731 316.49 225.518 383.304 229.972 390.728C229.972 390.728 246.305 473.875 249.274 481.299C252.244 488.723 253.729 488.723 252.244 491.693C250.759 494.662 250.759 497.632 252.244 499.116C253.729 500.601 281.939 499.116 281.939 499.116L274.516 393.698L261.153 267.492L192.853 246.706L140.378 255.613Z" fill="#535070"/>
<path d="M136.432 487.238C136.432 487.238 129.008 460.512 117.13 481.299C105.252 502.086 105.252 509.51 105.252 509.51C105.252 509.51 85.95 537.72 112.676 534.751C139.402 531.781 133.463 518.418 133.463 518.418C133.463 518.418 143.856 512.479 143.856 508.025C143.856 503.571 136.432 487.238 136.432 487.238Z" fill="#2F2E41"/>
<path d="M256.698 484.269C256.698 484.269 264.122 457.543 276 478.33C287.879 499.116 287.879 506.54 287.879 506.54C287.879 506.54 307.18 534.751 280.455 531.781C253.729 528.812 259.668 515.449 259.668 515.449C259.668 515.449 249.275 509.51 249.275 505.055C249.275 500.601 256.698 484.269 256.698 484.269Z" fill="#2F2E41"/>
<path d="M186.914 55.1705C186.914 55.1705 189.884 74.4725 180.975 78.9268C172.067 83.3811 200.277 99.7136 207.701 99.7136C215.125 99.7136 228.488 84.8659 228.488 84.8659C228.488 84.8659 221.064 62.5944 222.549 58.1401L186.914 55.1705Z" fill="#A0616A"/>
<path d="M203.247 70.0182C220.467 70.0182 234.427 56.0584 234.427 38.8381C234.427 21.6178 220.467 7.65794 203.247 7.65794C186.026 7.65794 172.067 21.6178 172.067 38.8381C172.067 56.0584 186.026 70.0182 203.247 70.0182Z" fill="#A0616A"/>
<path d="M264.122 102.683L227.004 80.1945C227.004 80.1945 205.885 104.168 183.037 77.442L143.856 87.8354L149.795 188.8C149.795 188.8 140.886 228.888 143.856 236.312C146.825 243.736 136.432 246.706 139.402 248.19C142.371 249.675 139.402 260.069 139.402 260.069C139.402 260.069 197.308 289.764 261.153 267.492L255.214 248.19C256.022 245.667 256.173 242.98 255.654 240.382C255.134 237.784 253.961 235.361 252.244 233.343C252.244 233.343 258.183 224.434 250.759 217.01C250.759 217.01 253.729 203.647 246.305 197.708L244.82 176.922L249.274 166.528L264.122 102.683Z" fill="#DC3545"/>
<path d="M187.29 24.3603C187.29 24.3603 183.572 32.4049 198.442 29.1871C198.442 29.1871 204.018 32.405 204.018 27.5782C204.018 27.5782 211.452 35.6228 213.311 30.796C215.169 25.9692 218.887 32.4049 218.887 32.4049L222.604 24.3603L226.321 29.1871H239.332C239.332 29.1871 243.049 -2.99167 198.442 0.226208C153.834 3.44409 175.779 54.4281 175.779 54.4281C175.779 54.4281 176.138 45.2764 179.855 50.1033C183.572 54.9301 187.29 24.3603 187.29 24.3603Z" fill="#2F2E41"/>
<path d="M277.485 162.074L278.97 193.254C278.97 193.254 284.909 251.16 273.031 276.401V289.764C273.031 289.764 270.061 323.914 255.214 322.429C240.366 320.944 259.668 273.431 259.668 273.431L256.698 208.102L253.729 170.982L277.485 162.074Z" fill="#A0616A"/>
<path d="M247.79 104.168L262.601 101.762C273.27 112.013 280.538 125.29 283.424 139.802C287.879 163.559 289.363 168.013 289.363 168.013L253.729 176.922L234.427 139.802L247.79 104.168Z" fill="#CFCCE0"/>
<path d="M418.327 87.2232H184.017V203.618H418.327V87.2232Z" fill="white"/>
<path d="M209.602 94.2227C203.582 90.6027 196.324 90.8792 193.565 91.1557C194.615 93.7212 197.768 100.265 203.788 103.887C209.822 107.516 217.071 107.231 219.826 106.956C218.776 104.392 215.622 97.8455 209.602 94.2227Z" fill="#555555" fill-opacity="0.38"/>
<path d="M237.889 166.056H200.265C199.153 166.054 198.051 166.272 197.023 166.697C195.995 167.122 195.061 167.746 194.274 168.532C193.487 169.318 192.862 170.252 192.436 171.279C192.01 172.307 191.791 173.408 191.791 174.521C191.791 175.633 192.01 176.735 192.436 177.763C192.862 178.79 193.487 179.724 194.274 180.51C195.061 181.296 195.995 181.92 197.023 182.344C198.051 182.769 199.153 182.987 200.265 182.986H237.889C239.001 182.987 240.103 182.769 241.131 182.344C242.159 181.92 243.094 181.296 243.881 180.51C244.668 179.724 245.292 178.79 245.718 177.763C246.144 176.735 246.363 175.633 246.363 174.521C246.363 173.408 246.144 172.307 245.718 171.279C245.292 170.252 244.668 169.318 243.881 168.532C243.094 167.746 242.159 167.122 241.131 166.697C240.103 166.272 239.001 166.054 237.889 166.056V166.056Z" fill="#555555" fill-opacity="0.38"/>
<path d="M408.261 76.6997H197.318C194.864 76.6997 192.434 77.183 190.167 78.122C187.9 79.0611 185.84 80.4375 184.105 82.1726C182.37 83.9078 180.993 85.9677 180.054 88.2347C179.115 90.5018 178.632 92.9317 178.632 95.3855V198.161C178.632 203.117 180.601 207.87 184.105 211.374C187.609 214.879 192.362 216.847 197.318 216.847H408.261C413.217 216.847 417.97 214.879 421.474 211.374C424.978 207.87 426.947 203.117 426.947 198.161V95.3855C426.947 92.9317 426.464 90.5018 425.525 88.2347C424.586 85.9677 423.209 83.9078 421.474 82.1726C419.739 80.4375 417.679 79.0611 415.412 78.122C413.145 77.183 410.715 76.6997 408.261 76.6997ZM192.099 89.4463C192.515 89.371 202.393 87.69 210.572 92.6116C218.751 97.5322 221.893 107.047 222.022 107.45L222.353 108.476L221.292 108.664C219.778 108.9 218.247 109.013 216.714 109C211.853 109.093 207.055 107.884 202.818 105.498C194.639 100.578 191.497 91.0629 191.368 90.6606L191.037 89.6346L192.099 89.4463ZM237.889 184.867H200.265C197.521 184.867 194.89 183.777 192.949 181.837C191.009 179.897 189.919 177.265 189.919 174.521C189.919 171.777 191.009 169.145 192.949 167.205C194.89 165.264 197.521 164.174 200.265 164.174H237.889C240.633 164.174 243.265 165.264 245.205 167.205C247.145 169.145 248.235 171.777 248.235 174.521C248.235 177.265 247.145 179.897 245.205 181.837C243.265 183.777 240.633 184.867 237.889 184.867ZM409.076 182.986C409.067 185.977 407.875 188.843 405.76 190.958C403.646 193.072 400.78 194.264 397.789 194.273H369.571C366.58 194.264 363.715 193.072 361.6 190.958C359.485 188.843 358.293 185.977 358.284 182.986V166.056C358.293 163.065 359.485 160.199 361.6 158.084C363.715 155.969 366.58 154.777 369.571 154.768H397.789C400.78 154.777 403.646 155.969 405.76 158.084C407.875 160.199 409.067 163.065 409.076 166.056V182.986Z" fill="#CECFF1"/>
<path d="M378.507 179.694H366.279C365.406 179.694 364.569 180.041 363.951 180.658C363.334 181.276 362.987 182.113 362.987 182.986C362.987 183.859 363.334 184.697 363.951 185.314C364.569 185.931 365.406 186.278 366.279 186.278H378.507C379.38 186.278 380.217 185.931 380.835 185.314C381.452 184.697 381.799 183.859 381.799 182.986C381.799 182.113 381.452 181.276 380.835 180.658C380.217 180.041 379.38 179.694 378.507 179.694V179.694ZM378.507 184.397H366.279C366.094 184.398 365.91 184.361 365.738 184.291C365.567 184.22 365.411 184.116 365.279 183.985C365.148 183.854 365.043 183.698 364.972 183.527C364.901 183.356 364.865 183.172 364.865 182.986C364.865 182.801 364.901 182.617 364.972 182.445C365.043 182.274 365.148 182.118 365.279 181.987C365.411 181.856 365.567 181.752 365.738 181.682C365.91 181.611 366.094 181.575 366.279 181.575H378.507C378.88 181.576 379.238 181.725 379.502 181.99C379.766 182.254 379.914 182.613 379.914 182.986C379.914 183.36 379.766 183.718 379.502 183.982C379.238 184.247 378.88 184.396 378.507 184.397V184.397Z" fill="#555555" fill-opacity="0.38"/>
<path d="M401.081 179.694H388.853C387.98 179.694 387.143 180.041 386.526 180.658C385.908 181.276 385.561 182.113 385.561 182.986C385.561 183.859 385.908 184.697 386.526 185.314C387.143 185.931 387.98 186.278 388.853 186.278H401.081C401.954 186.278 402.791 185.931 403.409 185.314C404.026 184.697 404.373 183.859 404.373 182.986C404.373 182.113 404.026 181.276 403.409 180.658C402.791 180.041 401.954 179.694 401.081 179.694V179.694ZM401.081 184.397H388.853C388.668 184.398 388.484 184.361 388.312 184.291C388.141 184.22 387.985 184.116 387.853 183.985C387.722 183.854 387.618 183.698 387.546 183.527C387.475 183.356 387.439 183.172 387.439 182.986C387.439 182.801 387.475 182.617 387.546 182.445C387.618 182.274 387.722 182.118 387.853 181.987C387.985 181.856 388.141 181.752 388.312 181.682C388.484 181.611 388.668 181.575 388.853 181.575H401.081C401.455 181.576 401.812 181.725 402.076 181.99C402.34 182.254 402.488 182.613 402.488 182.986C402.488 183.36 402.34 183.718 402.076 183.982C401.812 184.247 401.455 184.396 401.081 184.397V184.397Z" fill="#555555" fill-opacity="0.38"/>
<path d="M378.507 171.229H366.279C365.406 171.229 364.569 171.576 363.951 172.193C363.334 172.81 362.987 173.648 362.987 174.521C362.987 175.394 363.334 176.231 363.951 176.849C364.569 177.466 365.406 177.813 366.279 177.813H378.507C379.38 177.813 380.217 177.466 380.835 176.849C381.452 176.231 381.799 175.394 381.799 174.521C381.799 173.648 381.452 172.81 380.835 172.193C380.217 171.576 379.38 171.229 378.507 171.229V171.229ZM378.507 175.932H366.279C366.094 175.932 365.91 175.895 365.739 175.824C365.568 175.753 365.413 175.65 365.282 175.518C365.151 175.387 365.047 175.232 364.976 175.061C364.905 174.89 364.868 174.706 364.868 174.521C364.868 174.336 364.905 174.152 364.976 173.981C365.047 173.81 365.151 173.654 365.282 173.523C365.413 173.392 365.568 173.288 365.739 173.217C365.91 173.146 366.094 173.11 366.279 173.11H378.507C378.692 173.11 378.876 173.146 379.047 173.217C379.218 173.288 379.374 173.392 379.505 173.523C379.636 173.654 379.739 173.81 379.81 173.981C379.881 174.152 379.918 174.336 379.918 174.521C379.918 174.706 379.881 174.89 379.81 175.061C379.739 175.232 379.636 175.387 379.505 175.518C379.374 175.65 379.218 175.753 379.047 175.824C378.876 175.895 378.692 175.932 378.507 175.932V175.932Z" fill="#555555" fill-opacity="0.38"/>
<path d="M401.081 171.229H388.853C387.98 171.229 387.143 171.576 386.526 172.193C385.908 172.81 385.561 173.648 385.561 174.521C385.561 175.394 385.908 176.231 386.526 176.849C387.143 177.466 387.98 177.813 388.853 177.813H401.081C401.954 177.813 402.791 177.466 403.409 176.849C404.026 176.231 404.373 175.394 404.373 174.521C404.373 173.648 404.026 172.81 403.409 172.193C402.791 171.576 401.954 171.229 401.081 171.229V171.229ZM401.081 175.932H388.853C388.668 175.932 388.485 175.895 388.313 175.824C388.142 175.753 387.987 175.65 387.856 175.518C387.725 175.387 387.621 175.232 387.55 175.061C387.479 174.89 387.443 174.706 387.443 174.521C387.443 174.336 387.479 174.152 387.55 173.981C387.621 173.81 387.725 173.654 387.856 173.523C387.987 173.392 388.142 173.288 388.313 173.217C388.485 173.146 388.668 173.11 388.853 173.11H401.081C401.266 173.11 401.45 173.146 401.621 173.217C401.792 173.288 401.948 173.392 402.079 173.523C402.21 173.654 402.314 173.81 402.384 173.981C402.455 174.152 402.492 174.336 402.492 174.521C402.492 174.706 402.455 174.89 402.384 175.061C402.314 175.232 402.21 175.387 402.079 175.518C401.948 175.65 401.792 175.753 401.621 175.824C401.45 175.895 401.266 175.932 401.081 175.932V175.932Z" fill="#555555" fill-opacity="0.38"/>
<path d="M378.507 162.763H366.279C365.406 162.763 364.569 163.11 363.951 163.728C363.334 164.345 362.987 165.182 362.987 166.056C362.987 166.929 363.334 167.766 363.951 168.383C364.569 169.001 365.406 169.348 366.279 169.348H378.507C379.38 169.348 380.217 169.001 380.835 168.383C381.452 167.766 381.799 166.929 381.799 166.056C381.799 165.182 381.452 164.345 380.835 163.728C380.217 163.11 379.38 162.763 378.507 162.763V162.763ZM378.507 167.466H366.279C366.094 167.467 365.91 167.431 365.738 167.36C365.567 167.289 365.411 167.186 365.279 167.055C365.148 166.923 365.043 166.768 364.972 166.596C364.901 166.425 364.865 166.241 364.865 166.056C364.865 165.87 364.901 165.686 364.972 165.515C365.043 165.343 365.148 165.188 365.279 165.057C365.411 164.926 365.567 164.822 365.738 164.751C365.91 164.68 366.094 164.644 366.279 164.645H378.507C378.88 164.646 379.238 164.795 379.502 165.059C379.766 165.324 379.914 165.682 379.914 166.056C379.914 166.429 379.766 166.787 379.502 167.052C379.238 167.316 378.88 167.465 378.507 167.466V167.466Z" fill="#555555" fill-opacity="0.38"/>
<path d="M401.081 162.763H388.853C387.98 162.763 387.143 163.11 386.526 163.728C385.908 164.345 385.561 165.182 385.561 166.056C385.561 166.929 385.908 167.766 386.526 168.383C387.143 169.001 387.98 169.348 388.853 169.348H401.081C401.954 169.348 402.791 169.001 403.409 168.383C404.026 167.766 404.373 166.929 404.373 166.056C404.373 165.182 404.026 164.345 403.409 163.728C402.791 163.11 401.954 162.763 401.081 162.763V162.763ZM401.081 167.466H388.853C388.668 167.467 388.484 167.431 388.312 167.36C388.141 167.289 387.985 167.186 387.853 167.055C387.722 166.923 387.618 166.768 387.546 166.596C387.475 166.425 387.439 166.241 387.439 166.056C387.439 165.87 387.475 165.686 387.546 165.515C387.618 165.343 387.722 165.188 387.853 165.057C387.985 164.926 388.141 164.822 388.312 164.751C388.484 164.68 388.668 164.644 388.853 164.645H401.081C401.455 164.646 401.812 164.795 402.076 165.059C402.34 165.324 402.488 165.682 402.488 166.056C402.488 166.429 402.34 166.787 402.076 167.052C401.812 167.316 401.455 167.465 401.081 167.466V167.466Z" fill="#555555" fill-opacity="0.38"/>
<path d="M121.584 144.257C121.584 144.257 108.222 200.678 124.554 200.678C140.886 200.678 179.49 136.833 179.49 136.833C179.49 136.833 219.579 116.046 203.247 108.622C186.914 101.198 166.127 120.5 166.127 120.5L142.142 153.8L140.886 136.833L121.584 144.257Z" fill="#A0616A"/>
<path d="M152.765 96.744L143.856 87.8354C143.856 87.8354 126.039 98.2288 124.554 108.622C123.069 119.016 115.645 151.68 115.645 151.68L143.114 153.908L152.022 140.545L152.765 96.744Z" fill="#DC3545"/>
<path d="M574.783 75.6228C573.664 72.32 559.637 61.093 568.233 59.2059L575.281 68.6045L607.688 36.1985L610.947 39.4578L574.783 75.6228Z" fill="#DC3545"/>
<path d="M574.783 185.817C573.664 182.514 559.637 171.287 568.233 169.4L575.281 178.798L607.688 146.392L610.947 149.652L574.783 185.817Z" fill="#DC3545"/>
<path d="M574.783 297.585C573.664 294.282 559.637 283.055 568.233 281.168L575.281 290.567L607.688 258.161L610.947 261.42L574.783 297.585Z" fill="#DC3545"/>
<path d="M672.941 72.2233C678.464 72.2233 682.941 67.7461 682.941 62.2233C682.941 56.7004 678.464 52.2233 672.941 52.2233C667.419 52.2233 662.941 56.7004 662.941 62.2233C662.941 67.7461 667.419 72.2233 672.941 72.2233Z" fill="#3F3D56"/>
<path d="M871.441 61.2232H710.441V63.2232H871.441V61.2232Z" fill="#3F3D56"/>
<path d="M672.941 182.417C678.464 182.417 682.941 177.94 682.941 172.417C682.941 166.894 678.464 162.417 672.941 162.417C667.419 162.417 662.941 166.894 662.941 172.417C662.941 177.94 667.419 182.417 672.941 182.417Z" fill="#3F3D56"/>
<path d="M871.441 171.417H710.441V173.417H871.441V171.417Z" fill="#3F3D56"/>
<path d="M672.941 294.185C678.464 294.185 682.941 289.708 682.941 284.185C682.941 278.663 678.464 274.185 672.941 274.185C667.419 274.185 662.941 278.663 662.941 284.185C662.941 289.708 667.419 294.185 672.941 294.185Z" fill="#3F3D56"/>
<path d="M871.441 283.185H710.441V285.185H871.441V283.185Z" fill="#3F3D56"/>
<path d="M600.04 312.485H550.04V261.485H584.04V263.485H552.04V310.485H598.04V287.485H600.04V312.485Z" fill="#3F3D56"/>
<path d="M600.04 200.485H550.04V149.485H584.04V151.485H552.04V198.485H598.04V175.485H600.04V200.485Z" fill="#3F3D56"/>
<path d="M600.04 86.485H550.04V35.485H584.04V37.485H552.04V84.485H598.04V61.485H600.04V86.485Z" fill="#3F3D56"/>
</svg>
