<svg width="41" height="43" viewBox="0 0 41 43" fill="none" xmlns="http://www.w3.org/2000/svg">
<mask id="path-1-outside-1" maskUnits="userSpaceOnUse" x="0" y="0" width="41" height="43" fill="black">
<rect fill="white" width="41" height="43"/>
<path fill-rule="evenodd" clip-rule="evenodd" d="M23.9688 2H18.1875V7.07035C16.2463 7.41315 14.4418 8.18023 12.863 9.27791L9.43962 5.67433L5.49049 9.8313L8.91392 13.4349C8.08133 14.7619 7.44895 16.2403 7.0621 17.8224H2V23.908H6.81685C7.0935 25.6437 7.66099 27.2756 8.46476 28.7463L4.79253 32.6118L8.74159 36.7688L12.1727 33.1571C13.9072 34.5291 15.9571 35.4831 18.1875 35.877V40.9473H23.9688V35.6188C25.6384 35.1664 27.1865 34.3951 28.5508 33.3703L31.7794 36.7688L35.7286 32.6118L32.3571 29.0629C33.2554 27.5112 33.8865 25.7693 34.1831 23.908H39V17.8224H33.9379C33.5645 16.2955 32.9625 14.8652 32.1725 13.5744L35.7284 9.83129L31.7794 5.67432L28.2682 9.3703C26.9741 8.44816 25.5242 7.74996 23.9688 7.32854V2ZM20.5 28.9544C24.4249 28.9544 27.6067 25.6052 27.6067 21.4737C27.6067 17.3422 24.4249 13.9929 20.5 13.9929C16.5751 13.9929 13.3933 17.3422 13.3933 21.4737C13.3933 25.6052 16.5751 28.9544 20.5 28.9544Z"/>
</mask>
<path d="M18.1875 2V0H16.1875V2H18.1875ZM23.9688 2H25.9688V0H23.9688V2ZM18.1875 7.07035L18.5353 9.03987L20.1875 8.7481V7.07035H18.1875ZM12.863 9.27791L11.413 10.6554L12.5953 11.8999L14.0047 10.92L12.863 9.27791ZM9.43962 5.67433L10.8896 4.29683L9.43962 2.77052L7.98962 4.29683L9.43962 5.67433ZM5.49049 9.8313L4.04049 8.4538L2.73186 9.8313L4.04049 11.2088L5.49049 9.8313ZM8.91392 13.4349L10.6081 14.4979L11.4331 13.1829L10.3639 12.0574L8.91392 13.4349ZM7.0621 17.8224V19.8224H8.63201L9.00487 18.2975L7.0621 17.8224ZM2 17.8224V15.8224H0V17.8224H2ZM2 23.908H0V25.908H2V23.908ZM6.81685 23.908L8.79192 23.5932L8.52333 21.908H6.81685V23.908ZM8.46476 28.7463L9.91477 30.1237L10.919 29.0666L10.2198 27.7871L8.46476 28.7463ZM4.79253 32.6118L3.34252 31.2343L2.03393 32.6118L3.34252 33.9893L4.79253 32.6118ZM8.74159 36.7688L7.29158 38.1463L8.74159 39.6726L10.1916 38.1463L8.74159 36.7688ZM12.1727 33.1571L13.4134 31.5885L11.9808 30.4553L10.7226 31.7796L12.1727 33.1571ZM18.1875 35.877H20.1875V34.1992L18.5353 33.9075L18.1875 35.877ZM18.1875 40.9473H16.1875V42.9473H18.1875V40.9473ZM23.9688 40.9473V42.9473H25.9688V40.9473H23.9688ZM23.9688 35.6188L23.4457 33.6884L21.9688 34.0886V35.6188H23.9688ZM28.5508 33.3703L30.0008 31.9928L28.7739 30.7013L27.3496 31.7712L28.5508 33.3703ZM31.7794 36.7688L30.3294 38.1463L31.7794 39.6726L33.2294 38.1463L31.7794 36.7688ZM35.7286 32.6118L37.1786 33.9893L38.4872 32.6118L37.1786 31.2343L35.7286 32.6118ZM32.3571 29.0629L30.6262 28.0609L29.8766 29.3557L30.9071 30.4404L32.3571 29.0629ZM34.1831 23.908V21.908H32.4767L32.2081 23.5932L34.1831 23.908ZM39 23.908V25.908H41V23.908H39ZM39 17.8224H41V15.8224H39V17.8224ZM33.9379 17.8224L31.9951 18.2975L32.368 19.8224H33.9379V17.8224ZM32.1725 13.5744L30.7225 12.1969L29.6656 13.3095L30.4667 14.6184L32.1725 13.5744ZM35.7284 9.83129L37.1784 11.2088L38.487 9.83129L37.1784 8.4538L35.7284 9.83129ZM31.7794 5.67432L33.2294 4.29683L31.7794 2.77048L30.3294 4.29683L31.7794 5.67432ZM28.2682 9.3703L27.1076 10.9991L28.5221 12.007L29.7182 10.7478L28.2682 9.3703ZM23.9688 7.32854H21.9688V8.85878L23.4457 9.25894L23.9688 7.32854ZM18.1875 4H23.9688V0H18.1875V4ZM20.1875 7.07035V2H16.1875V7.07035H20.1875ZM14.0047 10.92C15.3551 9.98118 16.8904 9.33036 18.5353 9.03987L17.8397 5.10082C15.6023 5.49594 13.5286 6.37929 11.7213 7.63579L14.0047 10.92ZM7.98962 7.05183L11.413 10.6554L14.313 7.9004L10.8896 4.29683L7.98962 7.05183ZM6.94048 11.2088L10.8896 7.05183L7.98962 4.29683L4.04049 8.4538L6.94048 11.2088ZM10.3639 12.0574L6.94048 8.4538L4.04049 11.2088L7.46393 14.8124L10.3639 12.0574ZM9.00487 18.2975C9.34053 16.9247 9.88854 15.6446 10.6081 14.4979L7.21979 12.3719C6.27412 13.8791 5.55738 15.5559 5.11933 17.3474L9.00487 18.2975ZM2 19.8224H7.0621V15.8224H2V19.8224ZM4 23.908V17.8224H0V23.908H4ZM6.81685 21.908H2V25.908H6.81685V21.908ZM10.2198 27.7871C9.52463 26.5152 9.03226 25.101 8.79192 23.5932L4.84178 24.2228C5.15475 26.1863 5.79734 28.036 6.70977 29.7054L10.2198 27.7871ZM6.24254 33.9893L9.91477 30.1237L7.01475 27.3688L3.34252 31.2343L6.24254 33.9893ZM10.1916 35.3913L6.24254 31.2343L3.34252 33.9893L7.29158 38.1463L10.1916 35.3913ZM10.7226 31.7796L7.29158 35.3913L10.1916 38.1463L13.6227 34.5346L10.7226 31.7796ZM18.5353 33.9075C16.6458 33.5738 14.9 32.7644 13.4134 31.5885L10.9319 34.7257C12.9144 36.2939 15.2685 37.3924 17.8397 37.8465L18.5353 33.9075ZM20.1875 40.9473V35.877H16.1875V40.9473H20.1875ZM23.9688 38.9473H18.1875V42.9473H23.9688V38.9473ZM21.9688 35.6188V40.9473H25.9688V35.6188H21.9688ZM27.3496 31.7712C26.181 32.649 24.8618 33.3048 23.4457 33.6884L24.4918 37.5492C26.4151 37.0281 28.192 36.1413 29.7521 34.9694L27.3496 31.7712ZM33.2294 35.3913L30.0008 31.9928L27.1008 34.7478L30.3294 38.1463L33.2294 35.3913ZM34.2786 31.2343L30.3294 35.3913L33.2294 38.1463L37.1786 33.9893L34.2786 31.2343ZM30.9071 30.4404L34.2786 33.9893L37.1786 31.2343L33.8071 27.6854L30.9071 30.4404ZM32.2081 23.5932C31.9504 25.2101 31.4028 26.7193 30.6262 28.0609L34.088 30.0649C35.1079 28.303 35.8226 26.3284 36.1582 24.2228L32.2081 23.5932ZM39 21.908H34.1831V25.908H39V21.908ZM37 17.8224V23.908H41V17.8224H37ZM33.9379 19.8224H39V15.8224H33.9379V19.8224ZM30.4667 14.6184C31.1495 15.7341 31.6712 16.9726 31.9951 18.2975L35.8807 17.3474C35.4579 15.6184 34.7756 13.9963 33.8784 12.5304L30.4667 14.6184ZM34.2784 8.4538L30.7225 12.1969L33.6225 14.9519L37.1784 11.2088L34.2784 8.4538ZM30.3294 7.0518L34.2784 11.2088L37.1784 8.4538L33.2294 4.29683L30.3294 7.0518ZM29.7182 10.7478L33.2294 7.0518L30.3294 4.29683L26.8182 7.99281L29.7182 10.7478ZM23.4457 9.25894C24.765 9.61637 26.0001 10.2099 27.1076 10.9991L29.4288 7.7415C27.9481 6.68642 26.2834 5.88355 24.4918 5.39813L23.4457 9.25894ZM21.9688 2V7.32854H25.9688V2H21.9688ZM25.6067 21.4737C25.6067 24.5985 23.2249 26.9544 20.5 26.9544V30.9544C25.6249 30.9544 29.6067 26.6118 29.6067 21.4737H25.6067ZM20.5 15.9929C23.2249 15.9929 25.6067 18.3488 25.6067 21.4737H29.6067C29.6067 16.3355 25.6249 11.9929 20.5 11.9929V15.9929ZM15.3933 21.4737C15.3933 18.3488 17.7751 15.9929 20.5 15.9929V11.9929C15.3751 11.9929 11.3933 16.3355 11.3933 21.4737H15.3933ZM20.5 26.9544C17.7751 26.9544 15.3933 24.5985 15.3933 21.4737H11.3933C11.3933 26.6118 15.3751 30.9544 20.5 30.9544V26.9544Z" fill="#4A4A4A" mask="url(#path-1-outside-1)"/>
</svg>
