<svg width="35" height="38" viewBox="0 0 35 38" fill="none" xmlns="http://www.w3.org/2000/svg">
<path d="M25.1042 38H3.76925C1.7028 38 0.021595 36.3085 0.021595 34.2292C0.021595 6.71799 -0.13802 8.41121 0.410637 7.85915C8.39838 -0.178023 7.89193 0.288685 8.17127 0.149691C8.57076 -0.0520438 7.47759 0.00852649 25.1041 0.00852649C27.1705 0.00852649 28.8518 1.70007 28.8518 3.77932V34.2292C28.8518 36.3085 27.1706 38 25.1042 38ZM7.43589 4.56599L4.55115 7.46861H7.43589V4.56599ZM26.1985 3.77932C26.1985 3.1722 25.7077 2.67829 25.1042 2.67829H10.0892V8.80358C10.0892 9.54085 9.4952 10.1385 8.76255 10.1385H2.67492V34.2292C2.67492 34.8363 3.16578 35.3302 3.76925 35.3302H25.1042C25.7076 35.3302 26.1985 34.8363 26.1985 34.2292V3.77932ZM35 34.2292L35 3.77924C35 1.69999 33.3188 0.00844259 31.2523 0.00844259C30.5197 0.00844259 29.9257 0.606054 29.9257 1.34333C29.9257 2.0806 30.5197 2.67821 31.2523 2.67821C31.8557 2.67821 32.3467 3.17212 32.3467 3.77924V34.2292C32.3467 34.8363 31.8558 35.3302 31.2523 35.3302C30.5197 35.3302 29.9257 35.9278 29.9257 36.6651C29.9257 37.4024 30.5197 38 31.2523 38C33.3188 38 35 36.3085 35 34.2292Z" fill="#4A4A4A"/>
</svg>
